<?xml version="1.0" encoding="UTF-8"?>
<svg id="OBJECTS" xmlns="http://www.w3.org/2000/svg" viewBox="0 0 94.07 94.07">
  <defs>
    <style>
      .cls-1 {
        fill: #1d1d1d;
      }
    </style>
  </defs>
  <path class="cls-1" d="M30.31,9.16c.85-.44,1.78-.7,2.67-1.05.9-.32,1.79-.68,2.73-.89-1,.2-1.95.57-2.92.9-.96.34-1.95.64-2.87,1.1-.93.43-1.87.85-2.8,1.3l-2.67,1.56c-3.47,2.23-6.7,4.92-9.42,8.1-2.69,3.2-4.92,6.78-6.63,10.61-1.62,3.87-2.66,7.97-3.16,12.13-.39,4.16-.22,8.35.51,12.45.84,4.07,2.19,8.01,4.05,11.67,1.95,3.61,4.32,6.95,7.08,9.9,2.83,2.87,5.94,5.42,9.34,7.46.81.57,2.13,1.26,3.43,2.01,1.31.73,2.72,1.26,3.63,1.69,7.51,2.77,16.94,3.38,25.68.83,4.35-1.28,8.51-3.19,12.15-5.67,3.61-2.51,6.73-5.46,9.27-8.55,2.45-3.18,3.97-6.38,4.65-8.77.35-1.2.62-2.14.74-2.81.09-.67.14-1.05.14-1.05.42-1.92.53-3.84-.37-2.16-.37.86-.78,2.09-1.38,3.36-.32.63-.65,1.28-.98,1.93-.32.66-.66,1.3-1.07,1.88-.78,1.16-1.43,2.27-2.07,2.95-.62.7-1.05,1.1-1.16,1.02-.05-.04.19-.43.59-.99.19-.29.45-.6.67-.96.22-.37.46-.76.7-1.15-.12-.07-.08-.46.04-1.01.11-.56.38-1.25.54-2.05.37-1.57.92-3.25,1.17-4.1.08-.44.34-1.4.64-2.62.1-.62.21-1.31.33-2.04.1-.72.28-1.46.29-2.23.31-3.03.04-6.04-.02-6.88-.21-2.62-.75.1-1.66,3.87-.3.94-.61,1.96-.92,3-.4,1.01-.8,2.05-1.2,3.07-.43,1-.95,1.93-1.36,2.83-.41.89-.95,1.64-1.31,2.33-.78,1.36-.99,1.23-.94.82,0-.44.15-1.22-.04-1.31-.15.35-.3.67-.44.98-.16.3-.34.56-.51.82-.34.51-.66.98-.98,1.45-.3.48-.71.89-1.08,1.38-.39.48-.77,1.02-1.21,1.63-.03-.02-.44.37-1.08,1.03-.32.33-.7.72-1.12,1.16-.46.4-.96.84-1.5,1.3-.26.23-.53.47-.81.71-.3.21-.6.43-.9.65-.61.43-1.2.91-1.82,1.3-1.28.73-2.44,1.53-3.48,1.96,0,0-.33.18-1.15.63-.21.11-.44.25-.72.37-.29.11-.61.23-.97.37-.36.14-.76.29-1.2.46-.22.08-.45.17-.69.26-.25.06-.51.13-.78.2-1.45.37-1.42.51-1.39.64q-.03-.13-.06-.27c-.69.37-1.82.5-2.94.66-1.11.21-2.25.17-3.01.29q0-.14-.01-.27c-1.49.29-3,.11-4.5.05-.75-.05-1.48-.24-2.23-.33-.74-.11-1.49-.2-2.21-.39q.03-.13.06-.27c-.72-.19-1.44-.38-1.98-.52-.53-.16-.86-.36-.84-.41q.04-.13.09-.26c-.66-.34-1.73-.63-2.57-.99-.83-.39-1.5-.71-1.43-.83q-.06.12-.12.24c-.33-.16-.66-.32-.98-.47-.3-.19-.6-.37-.9-.56-.59-.36-1.17-.72-1.73-1.06-.52-.4-1.03-.79-1.52-1.18-.49-.38-.99-.74-1.41-1.17-.85-.84-1.75-1.58-2.44-2.47-.37-.43-.73-.85-1.09-1.27-.37-.41-.64-.9-.97-1.34-.39-.62-.88-1.18-1.22-1.86-.37-.65-.74-1.32-1.12-1.99-.35-.68-.64-1.41-.98-2.12-.36-.7-.61-1.45-.86-2.21-.6-1.49-.91-3.09-1.32-4.68-.12-.81-.24-1.63-.37-2.45-.08-.41-.11-.82-.12-1.24l-.07-1.26c-.12-3.35.12-6.8,1.08-10.05.91-3.26,2.31-6.36,4.09-9.14.88-1.16,1.55-2.53.45-1.5.83-1.24,1.93-2.27,2.9-3.4,1.11-1,1.31-1.33,1.52-1.66.21-.33.4-.69,1.63-1.57,4.68-3.85,10.57-6.13,16.62-6.77,1.52-.06,3.05-.25,4.57-.09.76.06,1.53.02,2.28.15l2.26.34c2.97.62,5.93,1.47,8.62,2.92l1.03.49.97.6c.64.41,1.31.77,1.94,1.21,1.21.93,2.47,1.79,3.55,2.87,1.18.98,2.13,2.17,3.17,3.28.47.6.91,1.22,1.37,1.83.22.31.47.6.68.92l.59.98c3.28,5.15,4.91,11.21,5.1,17.32-.06-3.05-.18-5.76-.87-8.37-.54-2.64-1.59-5.16-3.08-7.85.12-.07.36-.2-.45-1.53-2.38-4.03-6.01-7.74-9.73-10.26-3.71-2.58-7.42-3.91-9.6-4.83-.75-.25-1.47-.61-2.61-.99-.58-.15-1.26-.31-2.1-.48-.42-.07-.87-.2-1.38-.23-.51-.03-1.06-.06-1.66-.1.8.06,1.61.03,2.4.17l2.38.36c.02-.13.07-.4.07-.4-3.18-.7-6.87-.85-10.53-.57-3.67.31-7.23,1.37-10.28,2.58,0,0-.11-.25-.17-.37-.99.5-2.01.92-2.97,1.48-.41.11-.53.06-.41-.12.13-.18.49-.52,1.1-.85.6-.36,1.4-.8,2.36-1.31.98-.44,2.13-.87,3.37-1.36,1.27-.37,2.64-.77,4.05-1.08.72-.12,1.44-.23,2.16-.35l1.08-.18c.36-.02.73-.04,1.09-.06,1.45-.08,2.86-.21,4.18-.09.66.03,1.3.05,1.9.08.61,0,1.17.14,1.7.2.02-.13.06-.41.07-.54-.57-.07-1.14-.21-1.72-.22l-1.73-.09v-.27c5.23.24,9.96,1.49,14.29,3.52,4.33,2.04,8.3,4.88,11.84,8.74-.29-.32-.66-.73-1.06-1.17-.42-.43-.92-.85-1.4-1.29-.48-.44-.97-.88-1.41-1.28-.48-.36-.92-.69-1.27-.95.08-.11.17-.22-1.24-1.27,2.89,2,5.8,4.71,8.27,7.79,2.52,3.05,4.37,6.58,5.8,9.79.37.8.5.76.32-.12-.13-.9-.77-2.57-1.95-4.99-.71-1.14-1.3-2.23-1.99-3.19-.71-.94-1.37-1.85-2.06-2.73-.75-.83-1.51-1.66-2.3-2.53-.85-.81-1.78-1.63-2.77-2.54l.17-.21c.66.61,1.41,1.3,2.2,2.03.8.72,1.49,1.62,2.26,2.44.79.81,1.4,1.76,2.06,2.6.32.43.64.84.94,1.24.27.42.53.82.78,1.2.53.74.15-.09-.24-.92-.36-.85-.9-1.6-.27-.92.52.75.97,1.56,1.47,2.33l.75,1.16c.22.4.45.8.67,1.21-.55-1.27-1.39-2.51-2.2-3.84-.38-.68-.89-1.29-1.36-1.92-.49-.63-.96-1.28-1.46-1.9-2.13-2.4-4.41-4.68-6.61-6.34-.7-.59-1.37-1.24-1.92-1.66-.54-.43-.89-.76-.82-.88-3.99-2.39-7.89-4.02-11.49-5.02-.45-.14-.89-.27-1.32-.41-.43-.14-.88-.2-1.31-.3-.86-.19-1.69-.38-2.5-.56-1.62-.3-3.16-.48-4.58-.73-.47-.05-1.43-.05-2.68,0-.63.04-1.33,0-2.08.13-.75.11-1.55.23-2.38.35-.41.07-.83.13-1.26.2-.42.11-.84.22-1.26.32-.85.22-1.7.45-2.54.67-.82.28-1.62.59-2.38.87-.76.3-1.51.52-2.14.86Z"/>
  <g>
    <path d="M57.1,34.82c-1.23,0-2.23,1-2.23,2.23s1,2.23,2.23,2.23,2.23-1,2.23-2.23-1-2.23-2.23-2.23Z"/>
    <path d="M47.19,37.68c-5.16,0-9.36,4.2-9.36,9.36s4.2,9.36,9.36,9.36,9.36-4.2,9.36-9.36-4.2-9.36-9.36-9.36ZM47.19,53.03c-3.31,0-5.99-2.69-5.99-5.99s2.69-5.99,5.99-5.99,5.99,2.69,5.99,5.99-2.69,5.99-5.99,5.99Z"/>
    <path d="M54.62,66.04h-15.17c-6.29,0-11.41-5.12-11.41-11.41v-15.17c0-6.29,5.12-11.41,11.41-11.41h15.17c6.29,0,11.41,5.12,11.41,11.41v15.17c0,6.29-5.12,11.41-11.41,11.41ZM39.45,31.61c-4.32,0-7.84,3.52-7.84,7.84v15.17c0,4.32,3.52,7.84,7.84,7.84h15.17c4.32,0,7.84-3.52,7.84-7.84v-15.17c0-4.32-3.52-7.84-7.84-7.84h-15.17Z"/>
  </g>
</svg>